G04 #@! TF.GenerationSoftware,KiCad,Pcbnew,5.1.9*
G04 #@! TF.CreationDate,2021-03-07T10:51:21+01:00*
G04 #@! TF.ProjectId,UniAmp,556e6941-6d70-42e6-9b69-6361645f7063,rev?*
G04 #@! TF.SameCoordinates,Original*
G04 #@! TF.FileFunction,Soldermask,Bot*
G04 #@! TF.FilePolarity,Negative*
%FSLAX46Y46*%
G04 Gerber Fmt 4.6, Leading zero omitted, Abs format (unit mm)*
G04 Created by KiCad (PCBNEW 5.1.9) date 2021-03-07 10:51:21*
%MOMM*%
%LPD*%
G01*
G04 APERTURE LIST*
G04 #@! TA.AperFunction,Profile*
%ADD10C,0.050000*%
G04 #@! TD*
%ADD11C,2.200000*%
%ADD12R,1.000000X1.000000*%
%ADD13O,1.000000X1.000000*%
%ADD14C,1.250000*%
G04 APERTURE END LIST*
D10*
X113010000Y-56530000D02*
X113010000Y-75960000D01*
X141850000Y-56530000D02*
X113010000Y-56530000D01*
X141850000Y-75960000D02*
X141850000Y-56530000D01*
X113010000Y-75960000D02*
X141850000Y-75960000D01*
X113010000Y-56530000D02*
X113010000Y-75960000D01*
X141850000Y-56530000D02*
X113010000Y-56530000D01*
X141850000Y-75960000D02*
X141850000Y-56530000D01*
X113010000Y-75960000D02*
X141850000Y-75960000D01*
D11*
X115200000Y-58730000D03*
X139680000Y-58740000D03*
X115300000Y-73660000D03*
D12*
X118360000Y-74230000D03*
D13*
X119630000Y-74230000D03*
X120900000Y-74230000D03*
X122170000Y-74230000D03*
X123440000Y-74230000D03*
D14*
X114000000Y-63500000D03*
X114000000Y-65150000D03*
X117660000Y-57490000D03*
X120960000Y-57480000D03*
X127850000Y-57540000D03*
X126190000Y-57500000D03*
X124530000Y-57480000D03*
X122870000Y-57520000D03*
X119310000Y-57490000D03*
X140870000Y-62310000D03*
X140870000Y-63970000D03*
X140850000Y-65620000D03*
X140830000Y-67270000D03*
X140840000Y-70820000D03*
X140910000Y-73700000D03*
X129970000Y-57550000D03*
X131620000Y-57530000D03*
X133270000Y-57540000D03*
X134920000Y-57540000D03*
M02*
