G04 #@! TF.GenerationSoftware,KiCad,Pcbnew,5.1.9*
G04 #@! TF.CreationDate,2021-03-07T10:51:21+01:00*
G04 #@! TF.ProjectId,UniAmp,556e6941-6d70-42e6-9b69-6361645f7063,rev?*
G04 #@! TF.SameCoordinates,Original*
G04 #@! TF.FileFunction,Soldermask,Top*
G04 #@! TF.FilePolarity,Negative*
%FSLAX46Y46*%
G04 Gerber Fmt 4.6, Leading zero omitted, Abs format (unit mm)*
G04 Created by KiCad (PCBNEW 5.1.9) date 2021-03-07 10:51:21*
%MOMM*%
%LPD*%
G01*
G04 APERTURE LIST*
G04 #@! TA.AperFunction,Profile*
%ADD10C,0.050000*%
G04 #@! TD*
%ADD11C,2.200000*%
%ADD12C,0.150000*%
%ADD13R,1.000000X1.000000*%
%ADD14O,1.000000X1.000000*%
%ADD15C,1.250000*%
%ADD16R,1.060000X0.650000*%
G04 APERTURE END LIST*
D10*
X113010000Y-56530000D02*
X113010000Y-75960000D01*
X141850000Y-56530000D02*
X113010000Y-56530000D01*
X141850000Y-75960000D02*
X141850000Y-56530000D01*
X113010000Y-75960000D02*
X141850000Y-75960000D01*
X113010000Y-56530000D02*
X113010000Y-75960000D01*
X141850000Y-56530000D02*
X113010000Y-56530000D01*
X141850000Y-75960000D02*
X141850000Y-56530000D01*
X113010000Y-75960000D02*
X141850000Y-75960000D01*
G36*
G01*
X126053750Y-63925000D02*
X126566250Y-63925000D01*
G75*
G02*
X126785000Y-64143750I0J-218750D01*
G01*
X126785000Y-64581250D01*
G75*
G02*
X126566250Y-64800000I-218750J0D01*
G01*
X126053750Y-64800000D01*
G75*
G02*
X125835000Y-64581250I0J218750D01*
G01*
X125835000Y-64143750D01*
G75*
G02*
X126053750Y-63925000I218750J0D01*
G01*
G37*
G36*
G01*
X126053750Y-65500000D02*
X126566250Y-65500000D01*
G75*
G02*
X126785000Y-65718750I0J-218750D01*
G01*
X126785000Y-66156250D01*
G75*
G02*
X126566250Y-66375000I-218750J0D01*
G01*
X126053750Y-66375000D01*
G75*
G02*
X125835000Y-66156250I0J218750D01*
G01*
X125835000Y-65718750D01*
G75*
G02*
X126053750Y-65500000I218750J0D01*
G01*
G37*
D11*
X115200000Y-58730000D03*
X139680000Y-58740000D03*
X115300000Y-73660000D03*
G36*
G01*
X122005000Y-65343750D02*
X122005000Y-65856250D01*
G75*
G02*
X121786250Y-66075000I-218750J0D01*
G01*
X121348750Y-66075000D01*
G75*
G02*
X121130000Y-65856250I0J218750D01*
G01*
X121130000Y-65343750D01*
G75*
G02*
X121348750Y-65125000I218750J0D01*
G01*
X121786250Y-65125000D01*
G75*
G02*
X122005000Y-65343750I0J-218750D01*
G01*
G37*
G36*
G01*
X120430000Y-65343750D02*
X120430000Y-65856250D01*
G75*
G02*
X120211250Y-66075000I-218750J0D01*
G01*
X119773750Y-66075000D01*
G75*
G02*
X119555000Y-65856250I0J218750D01*
G01*
X119555000Y-65343750D01*
G75*
G02*
X119773750Y-65125000I218750J0D01*
G01*
X120211250Y-65125000D01*
G75*
G02*
X120430000Y-65343750I0J-218750D01*
G01*
G37*
G36*
G01*
X127093750Y-62197500D02*
X127606250Y-62197500D01*
G75*
G02*
X127825000Y-62416250I0J-218750D01*
G01*
X127825000Y-62853750D01*
G75*
G02*
X127606250Y-63072500I-218750J0D01*
G01*
X127093750Y-63072500D01*
G75*
G02*
X126875000Y-62853750I0J218750D01*
G01*
X126875000Y-62416250D01*
G75*
G02*
X127093750Y-62197500I218750J0D01*
G01*
G37*
G36*
G01*
X127093750Y-60622500D02*
X127606250Y-60622500D01*
G75*
G02*
X127825000Y-60841250I0J-218750D01*
G01*
X127825000Y-61278750D01*
G75*
G02*
X127606250Y-61497500I-218750J0D01*
G01*
X127093750Y-61497500D01*
G75*
G02*
X126875000Y-61278750I0J218750D01*
G01*
X126875000Y-60841250D01*
G75*
G02*
X127093750Y-60622500I218750J0D01*
G01*
G37*
G36*
G01*
X128693750Y-72812500D02*
X129206250Y-72812500D01*
G75*
G02*
X129425000Y-73031250I0J-218750D01*
G01*
X129425000Y-73468750D01*
G75*
G02*
X129206250Y-73687500I-218750J0D01*
G01*
X128693750Y-73687500D01*
G75*
G02*
X128475000Y-73468750I0J218750D01*
G01*
X128475000Y-73031250D01*
G75*
G02*
X128693750Y-72812500I218750J0D01*
G01*
G37*
G36*
G01*
X128693750Y-74387500D02*
X129206250Y-74387500D01*
G75*
G02*
X129425000Y-74606250I0J-218750D01*
G01*
X129425000Y-75043750D01*
G75*
G02*
X129206250Y-75262500I-218750J0D01*
G01*
X128693750Y-75262500D01*
G75*
G02*
X128475000Y-75043750I0J218750D01*
G01*
X128475000Y-74606250D01*
G75*
G02*
X128693750Y-74387500I218750J0D01*
G01*
G37*
G36*
G01*
X128793750Y-62197500D02*
X129306250Y-62197500D01*
G75*
G02*
X129525000Y-62416250I0J-218750D01*
G01*
X129525000Y-62853750D01*
G75*
G02*
X129306250Y-63072500I-218750J0D01*
G01*
X128793750Y-63072500D01*
G75*
G02*
X128575000Y-62853750I0J218750D01*
G01*
X128575000Y-62416250D01*
G75*
G02*
X128793750Y-62197500I218750J0D01*
G01*
G37*
G36*
G01*
X128793750Y-60622500D02*
X129306250Y-60622500D01*
G75*
G02*
X129525000Y-60841250I0J-218750D01*
G01*
X129525000Y-61278750D01*
G75*
G02*
X129306250Y-61497500I-218750J0D01*
G01*
X128793750Y-61497500D01*
G75*
G02*
X128575000Y-61278750I0J218750D01*
G01*
X128575000Y-60841250D01*
G75*
G02*
X128793750Y-60622500I218750J0D01*
G01*
G37*
G36*
G01*
X130833750Y-60622500D02*
X131346250Y-60622500D01*
G75*
G02*
X131565000Y-60841250I0J-218750D01*
G01*
X131565000Y-61278750D01*
G75*
G02*
X131346250Y-61497500I-218750J0D01*
G01*
X130833750Y-61497500D01*
G75*
G02*
X130615000Y-61278750I0J218750D01*
G01*
X130615000Y-60841250D01*
G75*
G02*
X130833750Y-60622500I218750J0D01*
G01*
G37*
G36*
G01*
X130833750Y-62197500D02*
X131346250Y-62197500D01*
G75*
G02*
X131565000Y-62416250I0J-218750D01*
G01*
X131565000Y-62853750D01*
G75*
G02*
X131346250Y-63072500I-218750J0D01*
G01*
X130833750Y-63072500D01*
G75*
G02*
X130615000Y-62853750I0J218750D01*
G01*
X130615000Y-62416250D01*
G75*
G02*
X130833750Y-62197500I218750J0D01*
G01*
G37*
G36*
G01*
X130693750Y-74387500D02*
X131206250Y-74387500D01*
G75*
G02*
X131425000Y-74606250I0J-218750D01*
G01*
X131425000Y-75043750D01*
G75*
G02*
X131206250Y-75262500I-218750J0D01*
G01*
X130693750Y-75262500D01*
G75*
G02*
X130475000Y-75043750I0J218750D01*
G01*
X130475000Y-74606250D01*
G75*
G02*
X130693750Y-74387500I218750J0D01*
G01*
G37*
G36*
G01*
X130693750Y-72812500D02*
X131206250Y-72812500D01*
G75*
G02*
X131425000Y-73031250I0J-218750D01*
G01*
X131425000Y-73468750D01*
G75*
G02*
X131206250Y-73687500I-218750J0D01*
G01*
X130693750Y-73687500D01*
G75*
G02*
X130475000Y-73468750I0J218750D01*
G01*
X130475000Y-73031250D01*
G75*
G02*
X130693750Y-72812500I218750J0D01*
G01*
G37*
G36*
G01*
X135283750Y-64077500D02*
X135796250Y-64077500D01*
G75*
G02*
X136015000Y-64296250I0J-218750D01*
G01*
X136015000Y-64733750D01*
G75*
G02*
X135796250Y-64952500I-218750J0D01*
G01*
X135283750Y-64952500D01*
G75*
G02*
X135065000Y-64733750I0J218750D01*
G01*
X135065000Y-64296250D01*
G75*
G02*
X135283750Y-64077500I218750J0D01*
G01*
G37*
G36*
G01*
X135283750Y-65652500D02*
X135796250Y-65652500D01*
G75*
G02*
X136015000Y-65871250I0J-218750D01*
G01*
X136015000Y-66308750D01*
G75*
G02*
X135796250Y-66527500I-218750J0D01*
G01*
X135283750Y-66527500D01*
G75*
G02*
X135065000Y-66308750I0J218750D01*
G01*
X135065000Y-65871250D01*
G75*
G02*
X135283750Y-65652500I218750J0D01*
G01*
G37*
G36*
G01*
X135453750Y-71027500D02*
X135966250Y-71027500D01*
G75*
G02*
X136185000Y-71246250I0J-218750D01*
G01*
X136185000Y-71683750D01*
G75*
G02*
X135966250Y-71902500I-218750J0D01*
G01*
X135453750Y-71902500D01*
G75*
G02*
X135235000Y-71683750I0J218750D01*
G01*
X135235000Y-71246250D01*
G75*
G02*
X135453750Y-71027500I218750J0D01*
G01*
G37*
G36*
G01*
X135453750Y-69452500D02*
X135966250Y-69452500D01*
G75*
G02*
X136185000Y-69671250I0J-218750D01*
G01*
X136185000Y-70108750D01*
G75*
G02*
X135966250Y-70327500I-218750J0D01*
G01*
X135453750Y-70327500D01*
G75*
G02*
X135235000Y-70108750I0J218750D01*
G01*
X135235000Y-69671250D01*
G75*
G02*
X135453750Y-69452500I218750J0D01*
G01*
G37*
G36*
G01*
X133802500Y-72703750D02*
X133802500Y-73216250D01*
G75*
G02*
X133583750Y-73435000I-218750J0D01*
G01*
X133146250Y-73435000D01*
G75*
G02*
X132927500Y-73216250I0J218750D01*
G01*
X132927500Y-72703750D01*
G75*
G02*
X133146250Y-72485000I218750J0D01*
G01*
X133583750Y-72485000D01*
G75*
G02*
X133802500Y-72703750I0J-218750D01*
G01*
G37*
G36*
G01*
X135377500Y-72703750D02*
X135377500Y-73216250D01*
G75*
G02*
X135158750Y-73435000I-218750J0D01*
G01*
X134721250Y-73435000D01*
G75*
G02*
X134502500Y-73216250I0J218750D01*
G01*
X134502500Y-72703750D01*
G75*
G02*
X134721250Y-72485000I218750J0D01*
G01*
X135158750Y-72485000D01*
G75*
G02*
X135377500Y-72703750I0J-218750D01*
G01*
G37*
G36*
G01*
X135377500Y-74323750D02*
X135377500Y-74836250D01*
G75*
G02*
X135158750Y-75055000I-218750J0D01*
G01*
X134721250Y-75055000D01*
G75*
G02*
X134502500Y-74836250I0J218750D01*
G01*
X134502500Y-74323750D01*
G75*
G02*
X134721250Y-74105000I218750J0D01*
G01*
X135158750Y-74105000D01*
G75*
G02*
X135377500Y-74323750I0J-218750D01*
G01*
G37*
G36*
G01*
X133802500Y-74323750D02*
X133802500Y-74836250D01*
G75*
G02*
X133583750Y-75055000I-218750J0D01*
G01*
X133146250Y-75055000D01*
G75*
G02*
X132927500Y-74836250I0J218750D01*
G01*
X132927500Y-74323750D01*
G75*
G02*
X133146250Y-74105000I218750J0D01*
G01*
X133583750Y-74105000D01*
G75*
G02*
X133802500Y-74323750I0J-218750D01*
G01*
G37*
G36*
G01*
X116243750Y-62617500D02*
X116756250Y-62617500D01*
G75*
G02*
X116975000Y-62836250I0J-218750D01*
G01*
X116975000Y-63273750D01*
G75*
G02*
X116756250Y-63492500I-218750J0D01*
G01*
X116243750Y-63492500D01*
G75*
G02*
X116025000Y-63273750I0J218750D01*
G01*
X116025000Y-62836250D01*
G75*
G02*
X116243750Y-62617500I218750J0D01*
G01*
G37*
G36*
G01*
X116243750Y-61042500D02*
X116756250Y-61042500D01*
G75*
G02*
X116975000Y-61261250I0J-218750D01*
G01*
X116975000Y-61698750D01*
G75*
G02*
X116756250Y-61917500I-218750J0D01*
G01*
X116243750Y-61917500D01*
G75*
G02*
X116025000Y-61698750I0J218750D01*
G01*
X116025000Y-61261250D01*
G75*
G02*
X116243750Y-61042500I218750J0D01*
G01*
G37*
G36*
G01*
X122173750Y-61052500D02*
X122686250Y-61052500D01*
G75*
G02*
X122905000Y-61271250I0J-218750D01*
G01*
X122905000Y-61708750D01*
G75*
G02*
X122686250Y-61927500I-218750J0D01*
G01*
X122173750Y-61927500D01*
G75*
G02*
X121955000Y-61708750I0J218750D01*
G01*
X121955000Y-61271250D01*
G75*
G02*
X122173750Y-61052500I218750J0D01*
G01*
G37*
G36*
G01*
X122173750Y-62627500D02*
X122686250Y-62627500D01*
G75*
G02*
X122905000Y-62846250I0J-218750D01*
G01*
X122905000Y-63283750D01*
G75*
G02*
X122686250Y-63502500I-218750J0D01*
G01*
X122173750Y-63502500D01*
G75*
G02*
X121955000Y-63283750I0J218750D01*
G01*
X121955000Y-62846250D01*
G75*
G02*
X122173750Y-62627500I218750J0D01*
G01*
G37*
D12*
G36*
X114550000Y-68279398D02*
G01*
X114525466Y-68279398D01*
X114476635Y-68274588D01*
X114428510Y-68265016D01*
X114381555Y-68250772D01*
X114336222Y-68231995D01*
X114292949Y-68208864D01*
X114252150Y-68181604D01*
X114214221Y-68150476D01*
X114179524Y-68115779D01*
X114148396Y-68077850D01*
X114121136Y-68037051D01*
X114098005Y-67993778D01*
X114079228Y-67948445D01*
X114064984Y-67901490D01*
X114055412Y-67853365D01*
X114050602Y-67804534D01*
X114050602Y-67780000D01*
X114050000Y-67780000D01*
X114050000Y-67280000D01*
X114050602Y-67280000D01*
X114050602Y-67255466D01*
X114055412Y-67206635D01*
X114064984Y-67158510D01*
X114079228Y-67111555D01*
X114098005Y-67066222D01*
X114121136Y-67022949D01*
X114148396Y-66982150D01*
X114179524Y-66944221D01*
X114214221Y-66909524D01*
X114252150Y-66878396D01*
X114292949Y-66851136D01*
X114336222Y-66828005D01*
X114381555Y-66809228D01*
X114428510Y-66794984D01*
X114476635Y-66785412D01*
X114525466Y-66780602D01*
X114550000Y-66780602D01*
X114550000Y-66780000D01*
X115050000Y-66780000D01*
X115050000Y-68280000D01*
X114550000Y-68280000D01*
X114550000Y-68279398D01*
G37*
G36*
X115350000Y-66780000D02*
G01*
X115850000Y-66780000D01*
X115850000Y-66780602D01*
X115874534Y-66780602D01*
X115923365Y-66785412D01*
X115971490Y-66794984D01*
X116018445Y-66809228D01*
X116063778Y-66828005D01*
X116107051Y-66851136D01*
X116147850Y-66878396D01*
X116185779Y-66909524D01*
X116220476Y-66944221D01*
X116251604Y-66982150D01*
X116278864Y-67022949D01*
X116301995Y-67066222D01*
X116320772Y-67111555D01*
X116335016Y-67158510D01*
X116344588Y-67206635D01*
X116349398Y-67255466D01*
X116349398Y-67280000D01*
X116350000Y-67280000D01*
X116350000Y-67780000D01*
X116349398Y-67780000D01*
X116349398Y-67804534D01*
X116344588Y-67853365D01*
X116335016Y-67901490D01*
X116320772Y-67948445D01*
X116301995Y-67993778D01*
X116278864Y-68037051D01*
X116251604Y-68077850D01*
X116220476Y-68115779D01*
X116185779Y-68150476D01*
X116147850Y-68181604D01*
X116107051Y-68208864D01*
X116063778Y-68231995D01*
X116018445Y-68250772D01*
X115971490Y-68265016D01*
X115923365Y-68274588D01*
X115874534Y-68279398D01*
X115850000Y-68279398D01*
X115850000Y-68280000D01*
X115350000Y-68280000D01*
X115350000Y-66780000D01*
G37*
G36*
X115350000Y-69270000D02*
G01*
X115850000Y-69270000D01*
X115850000Y-69270602D01*
X115874534Y-69270602D01*
X115923365Y-69275412D01*
X115971490Y-69284984D01*
X116018445Y-69299228D01*
X116063778Y-69318005D01*
X116107051Y-69341136D01*
X116147850Y-69368396D01*
X116185779Y-69399524D01*
X116220476Y-69434221D01*
X116251604Y-69472150D01*
X116278864Y-69512949D01*
X116301995Y-69556222D01*
X116320772Y-69601555D01*
X116335016Y-69648510D01*
X116344588Y-69696635D01*
X116349398Y-69745466D01*
X116349398Y-69770000D01*
X116350000Y-69770000D01*
X116350000Y-70270000D01*
X116349398Y-70270000D01*
X116349398Y-70294534D01*
X116344588Y-70343365D01*
X116335016Y-70391490D01*
X116320772Y-70438445D01*
X116301995Y-70483778D01*
X116278864Y-70527051D01*
X116251604Y-70567850D01*
X116220476Y-70605779D01*
X116185779Y-70640476D01*
X116147850Y-70671604D01*
X116107051Y-70698864D01*
X116063778Y-70721995D01*
X116018445Y-70740772D01*
X115971490Y-70755016D01*
X115923365Y-70764588D01*
X115874534Y-70769398D01*
X115850000Y-70769398D01*
X115850000Y-70770000D01*
X115350000Y-70770000D01*
X115350000Y-69270000D01*
G37*
G36*
X114550000Y-70769398D02*
G01*
X114525466Y-70769398D01*
X114476635Y-70764588D01*
X114428510Y-70755016D01*
X114381555Y-70740772D01*
X114336222Y-70721995D01*
X114292949Y-70698864D01*
X114252150Y-70671604D01*
X114214221Y-70640476D01*
X114179524Y-70605779D01*
X114148396Y-70567850D01*
X114121136Y-70527051D01*
X114098005Y-70483778D01*
X114079228Y-70438445D01*
X114064984Y-70391490D01*
X114055412Y-70343365D01*
X114050602Y-70294534D01*
X114050602Y-70270000D01*
X114050000Y-70270000D01*
X114050000Y-69770000D01*
X114050602Y-69770000D01*
X114050602Y-69745466D01*
X114055412Y-69696635D01*
X114064984Y-69648510D01*
X114079228Y-69601555D01*
X114098005Y-69556222D01*
X114121136Y-69512949D01*
X114148396Y-69472150D01*
X114179524Y-69434221D01*
X114214221Y-69399524D01*
X114252150Y-69368396D01*
X114292949Y-69341136D01*
X114336222Y-69318005D01*
X114381555Y-69299228D01*
X114428510Y-69284984D01*
X114476635Y-69275412D01*
X114525466Y-69270602D01*
X114550000Y-69270602D01*
X114550000Y-69270000D01*
X115050000Y-69270000D01*
X115050000Y-70770000D01*
X114550000Y-70770000D01*
X114550000Y-70769398D01*
G37*
D13*
X118360000Y-74230000D03*
D14*
X119630000Y-74230000D03*
X120900000Y-74230000D03*
X122170000Y-74230000D03*
X123440000Y-74230000D03*
G36*
G01*
X125846250Y-73090000D02*
X125333750Y-73090000D01*
G75*
G02*
X125115000Y-72871250I0J218750D01*
G01*
X125115000Y-72433750D01*
G75*
G02*
X125333750Y-72215000I218750J0D01*
G01*
X125846250Y-72215000D01*
G75*
G02*
X126065000Y-72433750I0J-218750D01*
G01*
X126065000Y-72871250D01*
G75*
G02*
X125846250Y-73090000I-218750J0D01*
G01*
G37*
G36*
G01*
X125846250Y-74665000D02*
X125333750Y-74665000D01*
G75*
G02*
X125115000Y-74446250I0J218750D01*
G01*
X125115000Y-74008750D01*
G75*
G02*
X125333750Y-73790000I218750J0D01*
G01*
X125846250Y-73790000D01*
G75*
G02*
X126065000Y-74008750I0J-218750D01*
G01*
X126065000Y-74446250D01*
G75*
G02*
X125846250Y-74665000I-218750J0D01*
G01*
G37*
G36*
G01*
X126973750Y-72225000D02*
X127486250Y-72225000D01*
G75*
G02*
X127705000Y-72443750I0J-218750D01*
G01*
X127705000Y-72881250D01*
G75*
G02*
X127486250Y-73100000I-218750J0D01*
G01*
X126973750Y-73100000D01*
G75*
G02*
X126755000Y-72881250I0J218750D01*
G01*
X126755000Y-72443750D01*
G75*
G02*
X126973750Y-72225000I218750J0D01*
G01*
G37*
G36*
G01*
X126973750Y-73800000D02*
X127486250Y-73800000D01*
G75*
G02*
X127705000Y-74018750I0J-218750D01*
G01*
X127705000Y-74456250D01*
G75*
G02*
X127486250Y-74675000I-218750J0D01*
G01*
X126973750Y-74675000D01*
G75*
G02*
X126755000Y-74456250I0J218750D01*
G01*
X126755000Y-74018750D01*
G75*
G02*
X126973750Y-73800000I218750J0D01*
G01*
G37*
G36*
G01*
X137716250Y-70617500D02*
X137203750Y-70617500D01*
G75*
G02*
X136985000Y-70398750I0J218750D01*
G01*
X136985000Y-69961250D01*
G75*
G02*
X137203750Y-69742500I218750J0D01*
G01*
X137716250Y-69742500D01*
G75*
G02*
X137935000Y-69961250I0J-218750D01*
G01*
X137935000Y-70398750D01*
G75*
G02*
X137716250Y-70617500I-218750J0D01*
G01*
G37*
G36*
G01*
X137716250Y-72192500D02*
X137203750Y-72192500D01*
G75*
G02*
X136985000Y-71973750I0J218750D01*
G01*
X136985000Y-71536250D01*
G75*
G02*
X137203750Y-71317500I218750J0D01*
G01*
X137716250Y-71317500D01*
G75*
G02*
X137935000Y-71536250I0J-218750D01*
G01*
X137935000Y-71973750D01*
G75*
G02*
X137716250Y-72192500I-218750J0D01*
G01*
G37*
G36*
G01*
X137203750Y-72852500D02*
X137716250Y-72852500D01*
G75*
G02*
X137935000Y-73071250I0J-218750D01*
G01*
X137935000Y-73508750D01*
G75*
G02*
X137716250Y-73727500I-218750J0D01*
G01*
X137203750Y-73727500D01*
G75*
G02*
X136985000Y-73508750I0J218750D01*
G01*
X136985000Y-73071250D01*
G75*
G02*
X137203750Y-72852500I218750J0D01*
G01*
G37*
G36*
G01*
X137203750Y-74427500D02*
X137716250Y-74427500D01*
G75*
G02*
X137935000Y-74646250I0J-218750D01*
G01*
X137935000Y-75083750D01*
G75*
G02*
X137716250Y-75302500I-218750J0D01*
G01*
X137203750Y-75302500D01*
G75*
G02*
X136985000Y-75083750I0J218750D01*
G01*
X136985000Y-74646250D01*
G75*
G02*
X137203750Y-74427500I218750J0D01*
G01*
G37*
G36*
G01*
X138803750Y-69752500D02*
X139316250Y-69752500D01*
G75*
G02*
X139535000Y-69971250I0J-218750D01*
G01*
X139535000Y-70408750D01*
G75*
G02*
X139316250Y-70627500I-218750J0D01*
G01*
X138803750Y-70627500D01*
G75*
G02*
X138585000Y-70408750I0J218750D01*
G01*
X138585000Y-69971250D01*
G75*
G02*
X138803750Y-69752500I218750J0D01*
G01*
G37*
G36*
G01*
X138803750Y-71327500D02*
X139316250Y-71327500D01*
G75*
G02*
X139535000Y-71546250I0J-218750D01*
G01*
X139535000Y-71983750D01*
G75*
G02*
X139316250Y-72202500I-218750J0D01*
G01*
X138803750Y-72202500D01*
G75*
G02*
X138585000Y-71983750I0J218750D01*
G01*
X138585000Y-71546250D01*
G75*
G02*
X138803750Y-71327500I218750J0D01*
G01*
G37*
G36*
G01*
X139306250Y-73747500D02*
X138793750Y-73747500D01*
G75*
G02*
X138575000Y-73528750I0J218750D01*
G01*
X138575000Y-73091250D01*
G75*
G02*
X138793750Y-72872500I218750J0D01*
G01*
X139306250Y-72872500D01*
G75*
G02*
X139525000Y-73091250I0J-218750D01*
G01*
X139525000Y-73528750D01*
G75*
G02*
X139306250Y-73747500I-218750J0D01*
G01*
G37*
G36*
G01*
X139306250Y-75322500D02*
X138793750Y-75322500D01*
G75*
G02*
X138575000Y-75103750I0J218750D01*
G01*
X138575000Y-74666250D01*
G75*
G02*
X138793750Y-74447500I218750J0D01*
G01*
X139306250Y-74447500D01*
G75*
G02*
X139525000Y-74666250I0J-218750D01*
G01*
X139525000Y-75103750D01*
G75*
G02*
X139306250Y-75322500I-218750J0D01*
G01*
G37*
D15*
X114000000Y-63500000D03*
X114000000Y-65150000D03*
X117660000Y-57490000D03*
X120960000Y-57480000D03*
X127850000Y-57540000D03*
X126190000Y-57500000D03*
X124530000Y-57480000D03*
X122870000Y-57520000D03*
X119310000Y-57490000D03*
X140870000Y-62310000D03*
X140870000Y-63970000D03*
X140850000Y-65620000D03*
X140830000Y-67270000D03*
X140840000Y-70820000D03*
X140910000Y-73700000D03*
G36*
G01*
X119410000Y-70419999D02*
X119410000Y-68220001D01*
G75*
G02*
X119660001Y-67970000I250001J0D01*
G01*
X121859999Y-67970000D01*
G75*
G02*
X122110000Y-68220001I0J-250001D01*
G01*
X122110000Y-70419999D01*
G75*
G02*
X121859999Y-70670000I-250001J0D01*
G01*
X119660001Y-70670000D01*
G75*
G02*
X119410000Y-70419999I0J250001D01*
G01*
G37*
G36*
G01*
X118385000Y-68420000D02*
X118385000Y-68270000D01*
G75*
G02*
X118460000Y-68195000I75000J0D01*
G01*
X119135000Y-68195000D01*
G75*
G02*
X119210000Y-68270000I0J-75000D01*
G01*
X119210000Y-68420000D01*
G75*
G02*
X119135000Y-68495000I-75000J0D01*
G01*
X118460000Y-68495000D01*
G75*
G02*
X118385000Y-68420000I0J75000D01*
G01*
G37*
G36*
G01*
X118385000Y-69070000D02*
X118385000Y-68920000D01*
G75*
G02*
X118460000Y-68845000I75000J0D01*
G01*
X119135000Y-68845000D01*
G75*
G02*
X119210000Y-68920000I0J-75000D01*
G01*
X119210000Y-69070000D01*
G75*
G02*
X119135000Y-69145000I-75000J0D01*
G01*
X118460000Y-69145000D01*
G75*
G02*
X118385000Y-69070000I0J75000D01*
G01*
G37*
G36*
G01*
X118385000Y-69720000D02*
X118385000Y-69570000D01*
G75*
G02*
X118460000Y-69495000I75000J0D01*
G01*
X119135000Y-69495000D01*
G75*
G02*
X119210000Y-69570000I0J-75000D01*
G01*
X119210000Y-69720000D01*
G75*
G02*
X119135000Y-69795000I-75000J0D01*
G01*
X118460000Y-69795000D01*
G75*
G02*
X118385000Y-69720000I0J75000D01*
G01*
G37*
G36*
G01*
X118385000Y-70370000D02*
X118385000Y-70220000D01*
G75*
G02*
X118460000Y-70145000I75000J0D01*
G01*
X119135000Y-70145000D01*
G75*
G02*
X119210000Y-70220000I0J-75000D01*
G01*
X119210000Y-70370000D01*
G75*
G02*
X119135000Y-70445000I-75000J0D01*
G01*
X118460000Y-70445000D01*
G75*
G02*
X118385000Y-70370000I0J75000D01*
G01*
G37*
G36*
G01*
X119635000Y-71620000D02*
X119635000Y-70945000D01*
G75*
G02*
X119710000Y-70870000I75000J0D01*
G01*
X119860000Y-70870000D01*
G75*
G02*
X119935000Y-70945000I0J-75000D01*
G01*
X119935000Y-71620000D01*
G75*
G02*
X119860000Y-71695000I-75000J0D01*
G01*
X119710000Y-71695000D01*
G75*
G02*
X119635000Y-71620000I0J75000D01*
G01*
G37*
G36*
G01*
X120285000Y-71620000D02*
X120285000Y-70945000D01*
G75*
G02*
X120360000Y-70870000I75000J0D01*
G01*
X120510000Y-70870000D01*
G75*
G02*
X120585000Y-70945000I0J-75000D01*
G01*
X120585000Y-71620000D01*
G75*
G02*
X120510000Y-71695000I-75000J0D01*
G01*
X120360000Y-71695000D01*
G75*
G02*
X120285000Y-71620000I0J75000D01*
G01*
G37*
G36*
G01*
X120935000Y-71620000D02*
X120935000Y-70945000D01*
G75*
G02*
X121010000Y-70870000I75000J0D01*
G01*
X121160000Y-70870000D01*
G75*
G02*
X121235000Y-70945000I0J-75000D01*
G01*
X121235000Y-71620000D01*
G75*
G02*
X121160000Y-71695000I-75000J0D01*
G01*
X121010000Y-71695000D01*
G75*
G02*
X120935000Y-71620000I0J75000D01*
G01*
G37*
G36*
G01*
X121585000Y-71620000D02*
X121585000Y-70945000D01*
G75*
G02*
X121660000Y-70870000I75000J0D01*
G01*
X121810000Y-70870000D01*
G75*
G02*
X121885000Y-70945000I0J-75000D01*
G01*
X121885000Y-71620000D01*
G75*
G02*
X121810000Y-71695000I-75000J0D01*
G01*
X121660000Y-71695000D01*
G75*
G02*
X121585000Y-71620000I0J75000D01*
G01*
G37*
G36*
G01*
X122310000Y-70370000D02*
X122310000Y-70220000D01*
G75*
G02*
X122385000Y-70145000I75000J0D01*
G01*
X123060000Y-70145000D01*
G75*
G02*
X123135000Y-70220000I0J-75000D01*
G01*
X123135000Y-70370000D01*
G75*
G02*
X123060000Y-70445000I-75000J0D01*
G01*
X122385000Y-70445000D01*
G75*
G02*
X122310000Y-70370000I0J75000D01*
G01*
G37*
G36*
G01*
X122310000Y-69720000D02*
X122310000Y-69570000D01*
G75*
G02*
X122385000Y-69495000I75000J0D01*
G01*
X123060000Y-69495000D01*
G75*
G02*
X123135000Y-69570000I0J-75000D01*
G01*
X123135000Y-69720000D01*
G75*
G02*
X123060000Y-69795000I-75000J0D01*
G01*
X122385000Y-69795000D01*
G75*
G02*
X122310000Y-69720000I0J75000D01*
G01*
G37*
G36*
G01*
X122310000Y-69070000D02*
X122310000Y-68920000D01*
G75*
G02*
X122385000Y-68845000I75000J0D01*
G01*
X123060000Y-68845000D01*
G75*
G02*
X123135000Y-68920000I0J-75000D01*
G01*
X123135000Y-69070000D01*
G75*
G02*
X123060000Y-69145000I-75000J0D01*
G01*
X122385000Y-69145000D01*
G75*
G02*
X122310000Y-69070000I0J75000D01*
G01*
G37*
G36*
G01*
X122310000Y-68420000D02*
X122310000Y-68270000D01*
G75*
G02*
X122385000Y-68195000I75000J0D01*
G01*
X123060000Y-68195000D01*
G75*
G02*
X123135000Y-68270000I0J-75000D01*
G01*
X123135000Y-68420000D01*
G75*
G02*
X123060000Y-68495000I-75000J0D01*
G01*
X122385000Y-68495000D01*
G75*
G02*
X122310000Y-68420000I0J75000D01*
G01*
G37*
G36*
G01*
X121585000Y-67695000D02*
X121585000Y-67020000D01*
G75*
G02*
X121660000Y-66945000I75000J0D01*
G01*
X121810000Y-66945000D01*
G75*
G02*
X121885000Y-67020000I0J-75000D01*
G01*
X121885000Y-67695000D01*
G75*
G02*
X121810000Y-67770000I-75000J0D01*
G01*
X121660000Y-67770000D01*
G75*
G02*
X121585000Y-67695000I0J75000D01*
G01*
G37*
G36*
G01*
X120935000Y-67695000D02*
X120935000Y-67020000D01*
G75*
G02*
X121010000Y-66945000I75000J0D01*
G01*
X121160000Y-66945000D01*
G75*
G02*
X121235000Y-67020000I0J-75000D01*
G01*
X121235000Y-67695000D01*
G75*
G02*
X121160000Y-67770000I-75000J0D01*
G01*
X121010000Y-67770000D01*
G75*
G02*
X120935000Y-67695000I0J75000D01*
G01*
G37*
G36*
G01*
X120285000Y-67695000D02*
X120285000Y-67020000D01*
G75*
G02*
X120360000Y-66945000I75000J0D01*
G01*
X120510000Y-66945000D01*
G75*
G02*
X120585000Y-67020000I0J-75000D01*
G01*
X120585000Y-67695000D01*
G75*
G02*
X120510000Y-67770000I-75000J0D01*
G01*
X120360000Y-67770000D01*
G75*
G02*
X120285000Y-67695000I0J75000D01*
G01*
G37*
G36*
G01*
X119635000Y-67695000D02*
X119635000Y-67020000D01*
G75*
G02*
X119710000Y-66945000I75000J0D01*
G01*
X119860000Y-66945000D01*
G75*
G02*
X119935000Y-67020000I0J-75000D01*
G01*
X119935000Y-67695000D01*
G75*
G02*
X119860000Y-67770000I-75000J0D01*
G01*
X119710000Y-67770000D01*
G75*
G02*
X119635000Y-67695000I0J75000D01*
G01*
G37*
G36*
G01*
X129310000Y-69240001D02*
X129310000Y-66639999D01*
G75*
G02*
X129559999Y-66390000I249999J0D01*
G01*
X132160001Y-66390000D01*
G75*
G02*
X132410000Y-66639999I0J-249999D01*
G01*
X132410000Y-69240001D01*
G75*
G02*
X132160001Y-69490000I-249999J0D01*
G01*
X129559999Y-69490000D01*
G75*
G02*
X129310000Y-69240001I0J249999D01*
G01*
G37*
G36*
G01*
X127985000Y-66252500D02*
X127985000Y-66127500D01*
G75*
G02*
X128047500Y-66065000I62500J0D01*
G01*
X128797500Y-66065000D01*
G75*
G02*
X128860000Y-66127500I0J-62500D01*
G01*
X128860000Y-66252500D01*
G75*
G02*
X128797500Y-66315000I-62500J0D01*
G01*
X128047500Y-66315000D01*
G75*
G02*
X127985000Y-66252500I0J62500D01*
G01*
G37*
G36*
G01*
X127985000Y-66752500D02*
X127985000Y-66627500D01*
G75*
G02*
X128047500Y-66565000I62500J0D01*
G01*
X128797500Y-66565000D01*
G75*
G02*
X128860000Y-66627500I0J-62500D01*
G01*
X128860000Y-66752500D01*
G75*
G02*
X128797500Y-66815000I-62500J0D01*
G01*
X128047500Y-66815000D01*
G75*
G02*
X127985000Y-66752500I0J62500D01*
G01*
G37*
G36*
G01*
X127985000Y-67252500D02*
X127985000Y-67127500D01*
G75*
G02*
X128047500Y-67065000I62500J0D01*
G01*
X128797500Y-67065000D01*
G75*
G02*
X128860000Y-67127500I0J-62500D01*
G01*
X128860000Y-67252500D01*
G75*
G02*
X128797500Y-67315000I-62500J0D01*
G01*
X128047500Y-67315000D01*
G75*
G02*
X127985000Y-67252500I0J62500D01*
G01*
G37*
G36*
G01*
X127985000Y-67752500D02*
X127985000Y-67627500D01*
G75*
G02*
X128047500Y-67565000I62500J0D01*
G01*
X128797500Y-67565000D01*
G75*
G02*
X128860000Y-67627500I0J-62500D01*
G01*
X128860000Y-67752500D01*
G75*
G02*
X128797500Y-67815000I-62500J0D01*
G01*
X128047500Y-67815000D01*
G75*
G02*
X127985000Y-67752500I0J62500D01*
G01*
G37*
G36*
G01*
X127985000Y-68252500D02*
X127985000Y-68127500D01*
G75*
G02*
X128047500Y-68065000I62500J0D01*
G01*
X128797500Y-68065000D01*
G75*
G02*
X128860000Y-68127500I0J-62500D01*
G01*
X128860000Y-68252500D01*
G75*
G02*
X128797500Y-68315000I-62500J0D01*
G01*
X128047500Y-68315000D01*
G75*
G02*
X127985000Y-68252500I0J62500D01*
G01*
G37*
G36*
G01*
X127985000Y-68752500D02*
X127985000Y-68627500D01*
G75*
G02*
X128047500Y-68565000I62500J0D01*
G01*
X128797500Y-68565000D01*
G75*
G02*
X128860000Y-68627500I0J-62500D01*
G01*
X128860000Y-68752500D01*
G75*
G02*
X128797500Y-68815000I-62500J0D01*
G01*
X128047500Y-68815000D01*
G75*
G02*
X127985000Y-68752500I0J62500D01*
G01*
G37*
G36*
G01*
X127985000Y-69252500D02*
X127985000Y-69127500D01*
G75*
G02*
X128047500Y-69065000I62500J0D01*
G01*
X128797500Y-69065000D01*
G75*
G02*
X128860000Y-69127500I0J-62500D01*
G01*
X128860000Y-69252500D01*
G75*
G02*
X128797500Y-69315000I-62500J0D01*
G01*
X128047500Y-69315000D01*
G75*
G02*
X127985000Y-69252500I0J62500D01*
G01*
G37*
G36*
G01*
X127985000Y-69752500D02*
X127985000Y-69627500D01*
G75*
G02*
X128047500Y-69565000I62500J0D01*
G01*
X128797500Y-69565000D01*
G75*
G02*
X128860000Y-69627500I0J-62500D01*
G01*
X128860000Y-69752500D01*
G75*
G02*
X128797500Y-69815000I-62500J0D01*
G01*
X128047500Y-69815000D01*
G75*
G02*
X127985000Y-69752500I0J62500D01*
G01*
G37*
G36*
G01*
X128985000Y-70752500D02*
X128985000Y-70002500D01*
G75*
G02*
X129047500Y-69940000I62500J0D01*
G01*
X129172500Y-69940000D01*
G75*
G02*
X129235000Y-70002500I0J-62500D01*
G01*
X129235000Y-70752500D01*
G75*
G02*
X129172500Y-70815000I-62500J0D01*
G01*
X129047500Y-70815000D01*
G75*
G02*
X128985000Y-70752500I0J62500D01*
G01*
G37*
G36*
G01*
X129485000Y-70752500D02*
X129485000Y-70002500D01*
G75*
G02*
X129547500Y-69940000I62500J0D01*
G01*
X129672500Y-69940000D01*
G75*
G02*
X129735000Y-70002500I0J-62500D01*
G01*
X129735000Y-70752500D01*
G75*
G02*
X129672500Y-70815000I-62500J0D01*
G01*
X129547500Y-70815000D01*
G75*
G02*
X129485000Y-70752500I0J62500D01*
G01*
G37*
G36*
G01*
X129985000Y-70752500D02*
X129985000Y-70002500D01*
G75*
G02*
X130047500Y-69940000I62500J0D01*
G01*
X130172500Y-69940000D01*
G75*
G02*
X130235000Y-70002500I0J-62500D01*
G01*
X130235000Y-70752500D01*
G75*
G02*
X130172500Y-70815000I-62500J0D01*
G01*
X130047500Y-70815000D01*
G75*
G02*
X129985000Y-70752500I0J62500D01*
G01*
G37*
G36*
G01*
X130485000Y-70752500D02*
X130485000Y-70002500D01*
G75*
G02*
X130547500Y-69940000I62500J0D01*
G01*
X130672500Y-69940000D01*
G75*
G02*
X130735000Y-70002500I0J-62500D01*
G01*
X130735000Y-70752500D01*
G75*
G02*
X130672500Y-70815000I-62500J0D01*
G01*
X130547500Y-70815000D01*
G75*
G02*
X130485000Y-70752500I0J62500D01*
G01*
G37*
G36*
G01*
X130985000Y-70752500D02*
X130985000Y-70002500D01*
G75*
G02*
X131047500Y-69940000I62500J0D01*
G01*
X131172500Y-69940000D01*
G75*
G02*
X131235000Y-70002500I0J-62500D01*
G01*
X131235000Y-70752500D01*
G75*
G02*
X131172500Y-70815000I-62500J0D01*
G01*
X131047500Y-70815000D01*
G75*
G02*
X130985000Y-70752500I0J62500D01*
G01*
G37*
G36*
G01*
X131485000Y-70752500D02*
X131485000Y-70002500D01*
G75*
G02*
X131547500Y-69940000I62500J0D01*
G01*
X131672500Y-69940000D01*
G75*
G02*
X131735000Y-70002500I0J-62500D01*
G01*
X131735000Y-70752500D01*
G75*
G02*
X131672500Y-70815000I-62500J0D01*
G01*
X131547500Y-70815000D01*
G75*
G02*
X131485000Y-70752500I0J62500D01*
G01*
G37*
G36*
G01*
X131985000Y-70752500D02*
X131985000Y-70002500D01*
G75*
G02*
X132047500Y-69940000I62500J0D01*
G01*
X132172500Y-69940000D01*
G75*
G02*
X132235000Y-70002500I0J-62500D01*
G01*
X132235000Y-70752500D01*
G75*
G02*
X132172500Y-70815000I-62500J0D01*
G01*
X132047500Y-70815000D01*
G75*
G02*
X131985000Y-70752500I0J62500D01*
G01*
G37*
G36*
G01*
X132485000Y-70752500D02*
X132485000Y-70002500D01*
G75*
G02*
X132547500Y-69940000I62500J0D01*
G01*
X132672500Y-69940000D01*
G75*
G02*
X132735000Y-70002500I0J-62500D01*
G01*
X132735000Y-70752500D01*
G75*
G02*
X132672500Y-70815000I-62500J0D01*
G01*
X132547500Y-70815000D01*
G75*
G02*
X132485000Y-70752500I0J62500D01*
G01*
G37*
G36*
G01*
X132860000Y-69752500D02*
X132860000Y-69627500D01*
G75*
G02*
X132922500Y-69565000I62500J0D01*
G01*
X133672500Y-69565000D01*
G75*
G02*
X133735000Y-69627500I0J-62500D01*
G01*
X133735000Y-69752500D01*
G75*
G02*
X133672500Y-69815000I-62500J0D01*
G01*
X132922500Y-69815000D01*
G75*
G02*
X132860000Y-69752500I0J62500D01*
G01*
G37*
G36*
G01*
X132860000Y-69252500D02*
X132860000Y-69127500D01*
G75*
G02*
X132922500Y-69065000I62500J0D01*
G01*
X133672500Y-69065000D01*
G75*
G02*
X133735000Y-69127500I0J-62500D01*
G01*
X133735000Y-69252500D01*
G75*
G02*
X133672500Y-69315000I-62500J0D01*
G01*
X132922500Y-69315000D01*
G75*
G02*
X132860000Y-69252500I0J62500D01*
G01*
G37*
G36*
G01*
X132860000Y-68752500D02*
X132860000Y-68627500D01*
G75*
G02*
X132922500Y-68565000I62500J0D01*
G01*
X133672500Y-68565000D01*
G75*
G02*
X133735000Y-68627500I0J-62500D01*
G01*
X133735000Y-68752500D01*
G75*
G02*
X133672500Y-68815000I-62500J0D01*
G01*
X132922500Y-68815000D01*
G75*
G02*
X132860000Y-68752500I0J62500D01*
G01*
G37*
G36*
G01*
X132860000Y-68252500D02*
X132860000Y-68127500D01*
G75*
G02*
X132922500Y-68065000I62500J0D01*
G01*
X133672500Y-68065000D01*
G75*
G02*
X133735000Y-68127500I0J-62500D01*
G01*
X133735000Y-68252500D01*
G75*
G02*
X133672500Y-68315000I-62500J0D01*
G01*
X132922500Y-68315000D01*
G75*
G02*
X132860000Y-68252500I0J62500D01*
G01*
G37*
G36*
G01*
X132860000Y-67752500D02*
X132860000Y-67627500D01*
G75*
G02*
X132922500Y-67565000I62500J0D01*
G01*
X133672500Y-67565000D01*
G75*
G02*
X133735000Y-67627500I0J-62500D01*
G01*
X133735000Y-67752500D01*
G75*
G02*
X133672500Y-67815000I-62500J0D01*
G01*
X132922500Y-67815000D01*
G75*
G02*
X132860000Y-67752500I0J62500D01*
G01*
G37*
G36*
G01*
X132860000Y-67252500D02*
X132860000Y-67127500D01*
G75*
G02*
X132922500Y-67065000I62500J0D01*
G01*
X133672500Y-67065000D01*
G75*
G02*
X133735000Y-67127500I0J-62500D01*
G01*
X133735000Y-67252500D01*
G75*
G02*
X133672500Y-67315000I-62500J0D01*
G01*
X132922500Y-67315000D01*
G75*
G02*
X132860000Y-67252500I0J62500D01*
G01*
G37*
G36*
G01*
X132860000Y-66752500D02*
X132860000Y-66627500D01*
G75*
G02*
X132922500Y-66565000I62500J0D01*
G01*
X133672500Y-66565000D01*
G75*
G02*
X133735000Y-66627500I0J-62500D01*
G01*
X133735000Y-66752500D01*
G75*
G02*
X133672500Y-66815000I-62500J0D01*
G01*
X132922500Y-66815000D01*
G75*
G02*
X132860000Y-66752500I0J62500D01*
G01*
G37*
G36*
G01*
X132860000Y-66252500D02*
X132860000Y-66127500D01*
G75*
G02*
X132922500Y-66065000I62500J0D01*
G01*
X133672500Y-66065000D01*
G75*
G02*
X133735000Y-66127500I0J-62500D01*
G01*
X133735000Y-66252500D01*
G75*
G02*
X133672500Y-66315000I-62500J0D01*
G01*
X132922500Y-66315000D01*
G75*
G02*
X132860000Y-66252500I0J62500D01*
G01*
G37*
G36*
G01*
X132485000Y-65877500D02*
X132485000Y-65127500D01*
G75*
G02*
X132547500Y-65065000I62500J0D01*
G01*
X132672500Y-65065000D01*
G75*
G02*
X132735000Y-65127500I0J-62500D01*
G01*
X132735000Y-65877500D01*
G75*
G02*
X132672500Y-65940000I-62500J0D01*
G01*
X132547500Y-65940000D01*
G75*
G02*
X132485000Y-65877500I0J62500D01*
G01*
G37*
G36*
G01*
X131985000Y-65877500D02*
X131985000Y-65127500D01*
G75*
G02*
X132047500Y-65065000I62500J0D01*
G01*
X132172500Y-65065000D01*
G75*
G02*
X132235000Y-65127500I0J-62500D01*
G01*
X132235000Y-65877500D01*
G75*
G02*
X132172500Y-65940000I-62500J0D01*
G01*
X132047500Y-65940000D01*
G75*
G02*
X131985000Y-65877500I0J62500D01*
G01*
G37*
G36*
G01*
X131485000Y-65877500D02*
X131485000Y-65127500D01*
G75*
G02*
X131547500Y-65065000I62500J0D01*
G01*
X131672500Y-65065000D01*
G75*
G02*
X131735000Y-65127500I0J-62500D01*
G01*
X131735000Y-65877500D01*
G75*
G02*
X131672500Y-65940000I-62500J0D01*
G01*
X131547500Y-65940000D01*
G75*
G02*
X131485000Y-65877500I0J62500D01*
G01*
G37*
G36*
G01*
X130985000Y-65877500D02*
X130985000Y-65127500D01*
G75*
G02*
X131047500Y-65065000I62500J0D01*
G01*
X131172500Y-65065000D01*
G75*
G02*
X131235000Y-65127500I0J-62500D01*
G01*
X131235000Y-65877500D01*
G75*
G02*
X131172500Y-65940000I-62500J0D01*
G01*
X131047500Y-65940000D01*
G75*
G02*
X130985000Y-65877500I0J62500D01*
G01*
G37*
G36*
G01*
X130485000Y-65877500D02*
X130485000Y-65127500D01*
G75*
G02*
X130547500Y-65065000I62500J0D01*
G01*
X130672500Y-65065000D01*
G75*
G02*
X130735000Y-65127500I0J-62500D01*
G01*
X130735000Y-65877500D01*
G75*
G02*
X130672500Y-65940000I-62500J0D01*
G01*
X130547500Y-65940000D01*
G75*
G02*
X130485000Y-65877500I0J62500D01*
G01*
G37*
G36*
G01*
X129985000Y-65877500D02*
X129985000Y-65127500D01*
G75*
G02*
X130047500Y-65065000I62500J0D01*
G01*
X130172500Y-65065000D01*
G75*
G02*
X130235000Y-65127500I0J-62500D01*
G01*
X130235000Y-65877500D01*
G75*
G02*
X130172500Y-65940000I-62500J0D01*
G01*
X130047500Y-65940000D01*
G75*
G02*
X129985000Y-65877500I0J62500D01*
G01*
G37*
G36*
G01*
X129485000Y-65877500D02*
X129485000Y-65127500D01*
G75*
G02*
X129547500Y-65065000I62500J0D01*
G01*
X129672500Y-65065000D01*
G75*
G02*
X129735000Y-65127500I0J-62500D01*
G01*
X129735000Y-65877500D01*
G75*
G02*
X129672500Y-65940000I-62500J0D01*
G01*
X129547500Y-65940000D01*
G75*
G02*
X129485000Y-65877500I0J62500D01*
G01*
G37*
G36*
G01*
X128985000Y-65877500D02*
X128985000Y-65127500D01*
G75*
G02*
X129047500Y-65065000I62500J0D01*
G01*
X129172500Y-65065000D01*
G75*
G02*
X129235000Y-65127500I0J-62500D01*
G01*
X129235000Y-65877500D01*
G75*
G02*
X129172500Y-65940000I-62500J0D01*
G01*
X129047500Y-65940000D01*
G75*
G02*
X128985000Y-65877500I0J62500D01*
G01*
G37*
D16*
X118390000Y-61310000D03*
X118390000Y-62260000D03*
X118390000Y-63210000D03*
X120590000Y-63210000D03*
X120590000Y-61310000D03*
D15*
X129970000Y-57550000D03*
X131620000Y-57530000D03*
X133270000Y-57540000D03*
X134920000Y-57540000D03*
M02*
